<svg width="16" height="18" viewBox="0 0 16 18" fill="none" xmlns="http://www.w3.org/2000/svg">
<path d="M2.16667 17.3333C1.70833 17.3333 1.31583 17.1702 0.989167 16.8441C0.663055 16.5175 0.5 16.125 0.5 15.6666V3.99996C0.5 3.54163 0.663055 3.1494 0.989167 2.82329C1.31583 2.49663 1.70833 2.33329 2.16667 2.33329H3V1.47913C3 1.24301 3.07972 1.04857 3.23917 0.895793C3.39917 0.743015 3.59722 0.666626 3.83333 0.666626C4.06944 0.666626 4.2675 0.746348 4.4275 0.905793C4.58694 1.06579 4.66667 1.26385 4.66667 1.49996V2.33329H11.3333V1.47913C11.3333 1.24301 11.4133 1.04857 11.5733 0.895793C11.7328 0.743015 11.9306 0.666626 12.1667 0.666626C12.4028 0.666626 12.6006 0.746348 12.76 0.905793C12.92 1.06579 13 1.26385 13 1.49996V2.33329H13.8333C14.2917 2.33329 14.6842 2.49663 15.0108 2.82329C15.3369 3.1494 15.5 3.54163 15.5 3.99996V15.6666C15.5 16.125 15.3369 16.5175 15.0108 16.8441C14.6842 17.1702 14.2917 17.3333 13.8333 17.3333H2.16667ZM2.16667 15.6666H13.8333V7.33329H2.16667V15.6666Z" fill="#8A8A8A"/>
</svg>
