<svg width="28" height="28" viewBox="0 0 28 28" fill="none" xmlns="http://www.w3.org/2000/svg">
<path d="M14 0.666748C11.3629 0.666748 8.78508 1.44873 6.59242 2.91382C4.39977 4.37891 2.6908 6.46129 1.68163 8.89764C0.672464 11.334 0.40842 14.0149 0.922889 16.6013C1.43736 19.1877 2.70724 21.5635 4.57194 23.4282C6.43664 25.2929 8.81241 26.5628 11.3988 27.0772C13.9852 27.5917 16.6661 27.3276 19.1025 26.3185C21.5388 25.3093 23.6212 23.6003 25.0863 21.4077C26.5514 19.215 27.3334 16.6372 27.3334 14.0001C27.3334 10.4639 25.9286 7.07248 23.4281 4.57199C20.9276 2.07151 17.5362 0.666748 14 0.666748ZM22.7084 9.52508L11.7584 20.4667L5.29169 14.0001C5.07068 13.7791 4.94652 13.4793 4.94652 13.1667C4.94652 12.8542 5.07068 12.5544 5.29169 12.3334C5.51271 12.1124 5.81247 11.9882 6.12503 11.9882C6.43759 11.9882 6.73735 12.1124 6.95836 12.3334L11.775 17.1501L21.0584 7.87508C21.1678 7.76565 21.2977 7.67884 21.4407 7.61961C21.5837 7.56039 21.7369 7.5299 21.8917 7.5299C22.0465 7.5299 22.1997 7.56039 22.3427 7.61961C22.4857 7.67884 22.6156 7.76565 22.725 7.87508C22.8345 7.98452 22.9213 8.11443 22.9805 8.25742C23.0397 8.4004 23.0702 8.55365 23.0702 8.70842C23.0702 8.86318 23.0397 9.01643 22.9805 9.15941C22.9213 9.3024 22.8345 9.43231 22.725 9.54175L22.7084 9.52508Z" fill="#8BFF63"/>
</svg>
