<svg width="240" height="240" viewBox="0 0 240 240" fill="none" xmlns="http://www.w3.org/2000/svg">
<rect width="240" height="240" rx="120" fill="#1A5AFE"/>
<path d="M120 85.4688C113.17 85.4688 106.494 87.494 100.815 91.2883C95.1368 95.0827 90.7109 100.476 88.0973 106.785C85.4837 113.095 84.7999 120.038 86.1323 126.737C87.4647 133.435 90.7534 139.588 95.5827 144.417C100.412 149.247 106.565 152.535 113.263 153.868C119.962 155.2 126.905 154.516 133.215 151.903C139.524 149.289 144.917 144.863 148.712 139.185C152.506 133.506 154.531 126.83 154.531 120C154.531 110.842 150.893 102.059 144.417 95.5827C137.941 89.1069 129.158 85.4688 120 85.4688ZM120 127.969C118.424 127.969 116.883 127.501 115.573 126.626C114.262 125.75 113.241 124.506 112.638 123.05C112.035 121.593 111.877 119.991 112.184 118.445C112.492 116.9 113.251 115.48 114.365 114.365C115.48 113.251 116.9 112.492 118.445 112.184C119.991 111.877 121.593 112.035 123.05 112.638C124.506 113.241 125.75 114.262 126.626 115.573C127.501 116.883 127.969 118.424 127.969 120C127.969 122.113 127.129 124.14 125.635 125.635C124.14 127.129 122.113 127.969 120 127.969ZM120 37.6562C74.5117 37.6562 37.6562 74.5117 37.6562 120C37.6562 165.488 74.5117 202.344 120 202.344C165.488 202.344 202.344 165.488 202.344 120C202.344 74.5117 165.488 37.6562 120 37.6562ZM120 162.5C111.594 162.5 103.377 160.007 96.3883 155.337C89.3992 150.667 83.9518 144.03 80.7351 136.264C77.5184 128.498 76.6768 119.953 78.3166 111.709C79.9565 103.464 84.0042 95.8917 89.948 89.948C95.8917 84.0042 103.464 79.9565 111.709 78.3166C119.953 76.6768 128.498 77.5184 136.264 80.7351C144.03 83.9518 150.667 89.3992 155.337 96.3883C160.007 103.377 162.5 111.594 162.5 120C162.5 131.272 158.022 142.082 150.052 150.052C142.082 158.022 131.272 162.5 120 162.5Z" fill="white"/>
</svg>
