<svg width="26" height="26" viewBox="0 0 26 26" fill="none" xmlns="http://www.w3.org/2000/svg">
<g clip-path="url(#clip0_617_4)">
<path d="M13 24.375C9.98316 24.375 7.08989 23.1766 4.95666 21.0433C2.82343 18.9101 1.625 16.0168 1.625 13C1.625 9.98316 2.82343 7.08989 4.95666 4.95666C7.08989 2.82343 9.98316 1.625 13 1.625C16.0168 1.625 18.9101 2.82343 21.0433 4.95666C23.1766 7.08989 24.375 9.98316 24.375 13C24.375 16.0168 23.1766 18.9101 21.0433 21.0433C18.9101 23.1766 16.0168 24.375 13 24.375ZM13 26C16.4478 26 19.7544 24.6304 22.1924 22.1924C24.6304 19.7544 26 16.4478 26 13C26 9.55219 24.6304 6.24558 22.1924 3.80761C19.7544 1.36964 16.4478 0 13 0C9.55219 0 6.24558 1.36964 3.80761 3.80761C1.36964 6.24558 0 9.55219 0 13C0 16.4478 1.36964 19.7544 3.80761 22.1924C6.24558 24.6304 9.55219 26 13 26V26Z" fill="#DBDBDB"/>
<path d="M8.125 10.1562C8.125 9.61753 8.33901 9.10087 8.71994 8.71994C9.10087 8.33901 9.61753 8.125 10.1562 8.125C10.695 8.125 11.2116 8.33901 11.5926 8.71994C11.9735 9.10087 12.1875 9.61753 12.1875 10.1562V15.8438C12.1875 16.3825 11.9735 16.8991 11.5926 17.2801C11.2116 17.661 10.695 17.875 10.1562 17.875C9.61753 17.875 9.10087 17.661 8.71994 17.2801C8.33901 16.8991 8.125 16.3825 8.125 15.8438V10.1562ZM13.8125 10.1562C13.8125 9.61753 14.0265 9.10087 14.4074 8.71994C14.7884 8.33901 15.305 8.125 15.8438 8.125C16.3825 8.125 16.8991 8.33901 17.2801 8.71994C17.661 9.10087 17.875 9.61753 17.875 10.1562V15.8438C17.875 16.3825 17.661 16.8991 17.2801 17.2801C16.8991 17.661 16.3825 17.875 15.8438 17.875C15.305 17.875 14.7884 17.661 14.4074 17.2801C14.0265 16.8991 13.8125 16.3825 13.8125 15.8438V10.1562Z" fill="#DBDBDB"/>
</g>
<defs>
<clipPath id="clip0_617_4">
<rect width="26" height="26" fill="white"/>
</clipPath>
</defs>
</svg>
