<svg width="26" height="26" viewBox="0 0 26 26" fill="none" xmlns="http://www.w3.org/2000/svg">
<g clip-path="url(#clip0_15_62)">
<path d="M13 24.375C9.98316 24.375 7.08989 23.1766 4.95666 21.0433C2.82343 18.9101 1.625 16.0168 1.625 13C1.625 9.98316 2.82343 7.08989 4.95666 4.95666C7.08989 2.82343 9.98316 1.625 13 1.625C16.0168 1.625 18.9101 2.82343 21.0433 4.95666C23.1766 7.08989 24.375 9.98316 24.375 13C24.375 16.0168 23.1766 18.9101 21.0433 21.0433C18.9101 23.1766 16.0168 24.375 13 24.375ZM13 26C16.4478 26 19.7544 24.6304 22.1924 22.1924C24.6304 19.7544 26 16.4478 26 13C26 9.55219 24.6304 6.24558 22.1924 3.80761C19.7544 1.36964 16.4478 0 13 0C9.55219 0 6.24558 1.36964 3.80761 3.80761C1.36964 6.24558 0 9.55219 0 13C0 16.4478 1.36964 19.7544 3.80761 22.1924C6.24558 24.6304 9.55219 26 13 26Z" fill="#DBDBDB"/>
<path d="M10.1904 8.21417C10.3233 8.14573 10.4725 8.11529 10.6216 8.12618C10.7706 8.13708 10.9138 8.18889 11.0354 8.27592L16.7229 12.3384C16.8282 12.4136 16.9141 12.5128 16.9733 12.6278C17.0325 12.7429 17.0634 12.8704 17.0634 12.9998C17.0634 13.1292 17.0325 13.2567 16.9733 13.3717C16.9141 13.4868 16.8282 13.586 16.7229 13.6612L11.0354 17.7237C10.9139 17.8106 10.7708 17.8624 10.6218 17.8733C10.4727 17.8842 10.3236 17.8538 10.1908 17.7854C10.0579 17.7171 9.94648 17.6134 9.86872 17.4858C9.79096 17.3582 9.74988 17.2117 9.75 17.0623V8.93729C9.74984 8.78793 9.79086 8.64141 9.86855 8.51384C9.94624 8.38627 10.0576 8.28258 10.1904 8.21417Z" fill="#DBDBDB"/>
</g>
<defs>
<clipPath id="clip0_15_62">
<rect width="26" height="26" fill="white"/>
</clipPath>
</defs>
</svg>
