<svg width="25" height="25" viewBox="0 0 25 25" fill="none" xmlns="http://www.w3.org/2000/svg">
<path d="M16.6668 8.85402C18.0554 10.7061 18.0554 14.2936 16.6668 16.1457M19.7918 5.20818C23.946 9.17485 23.971 15.8509 19.7918 19.7915M2.0835 15.5821V9.41652C2.0835 8.8186 2.55016 8.33318 3.12516 8.33318H6.86058C6.99843 8.33269 7.13475 8.30429 7.26132 8.24969C7.38789 8.19508 7.50209 8.11541 7.59704 8.01548L10.722 4.48631C11.3783 3.80298 12.5002 4.28735 12.5002 5.25298V19.7467C12.5002 20.7196 11.3647 21.1999 10.7127 20.503L7.59808 16.9936C7.50286 16.8908 7.38751 16.8087 7.25919 16.7525C7.13088 16.6962 6.99236 16.6669 6.85225 16.6665H3.12516C2.55016 16.6665 2.0835 16.1811 2.0835 15.5821Z" stroke="white" stroke-width="2.08333" stroke-linecap="round" stroke-linejoin="round"/>
</svg>
